<?xml version="1.0" encoding="utf-8"?>
<!-- Generator: Adobe Illustrator 22.0.1, SVG Export Plug-In . SVG Version: 6.00 Build 0)  -->
<svg version="1.1" id="Layer_1" xmlns="http://www.w3.org/2000/svg" xmlns:xlink="http://www.w3.org/1999/xlink" x="0px" y="0px"
	 viewBox="0 0 45.3 46.7" style="enable-background:new 0 0 45.3 46.7;" xml:space="preserve">
<style type="text/css">
	.st0{fill:#31B4A2;}
	.st1{fill:#3F5C7E;}
</style>
<g>
	<path class="st0" d="M25.1,46.7c-0.2-0.1-0.4-0.1-0.6-0.2c-0.8-0.3-1.2-0.9-1.3-1.8c0.4,0,0.7,0,1.1,0c0.4,0.9,1.2,1.2,2.1,0.8
		c0.3-0.1,0.5-0.3,0.5-0.6c-0.1-0.2-0.3-0.5-0.5-0.6c-0.5-0.2-1.1-0.3-1.7-0.5c-1.1-0.3-1.5-0.8-1.5-1.7c0-0.9,0.6-1.6,1.6-1.7
		c0.6-0.1,1.2,0,1.8,0.1c0.8,0.2,1.2,0.9,1.2,1.7c-0.4,0-0.7,0-1.1,0c-0.4-0.8-1-1.1-1.8-0.8c-0.3,0.1-0.5,0.3-0.5,0.7
		c0,0.3,0.2,0.5,0.5,0.6c0.6,0.1,1.2,0.3,1.7,0.4c1,0.3,1.4,0.7,1.4,1.6c0,0.9-0.5,1.5-1.4,1.8c-0.2,0-0.3,0.1-0.5,0.2
		C25.9,46.7,25.5,46.7,25.1,46.7z"/>
	<path class="st0" d="M0,27.1c2.2,0,4.4-0.1,6.6,0c1.9,0.1,3,1.9,2.5,3.8c-0.2,0.7-0.6,1.1-1.3,1.5c1.1,0.4,1.6,1.2,1.7,2.3
		c0.3,2.1-1.2,3.9-3.1,3.9c-2.1,0.1-4.3,0-6.5,0C0,34.8,0,30.9,0,27.1z M2.3,33.5c0,1.1,0,2.1,0,3.1c1.1,0,2.2,0,3.4,0
		c1,0,1.5-0.7,1.5-1.7c0-0.8-0.6-1.4-1.5-1.4C4.6,33.5,3.5,33.5,2.3,33.5z M2.3,31.6c0.9,0,1.8,0,2.6,0c0.2,0,0.5,0,0.7,0
		c0.2,0,0.4-0.1,0.5-0.1c0.5-0.2,0.8-0.7,0.8-1.2c0-0.6-0.3-1-0.9-1.1C4.8,29,3.6,29,2.3,29C2.3,29.9,2.3,30.7,2.3,31.6z"/>
	<path class="st1" d="M23,7.5c-2.7,0.4-5.1,1.2-7.2,2.9c-2,1.8-3.1,4.1-3.5,6.9c-0.3-1.6,0.1-4.2,0.8-5.7c1.5-3.4,4.2-5.6,7.4-7.1
		c0.8-0.4,1.7-0.7,2.6-1c-0.4-1.1-0.8-2.3-0.8-3.6c1.1,0.3,2.1,0.8,3,1.5c1,0.8,1.9,1.7,2.8,2.6c0.6,0.6,0.7,1.4,0.3,2.2
		c-1.4,2.4-3.2,4.4-5.7,5.6c-0.1,0-0.2,0.1-0.3,0.1c0,0-0.1,0-0.2,0C22.2,10.4,22.5,9,23,7.5z"/>
	<path class="st1" d="M20.9,17.8c2.7-0.4,5.1-1.3,7.1-3.1c2-1.8,2.9-4.2,3.3-6.9c0.4,3.7-0.6,6.9-3.2,9.6c-1.8,1.9-4.1,3.2-6.6,4.1
		c-0.2,0.1-0.4,0.1-0.6,0.2c0.4,1.1,0.8,2.3,0.9,3.6c-0.4-0.1-0.7-0.2-0.9-0.3c-2-0.8-3.6-2-5-3.6c-0.6-0.6-0.7-1.4-0.3-2.2
		c1.2-2.3,2.9-4.3,5.3-5.6c0.2-0.1,0.4-0.2,0.7-0.3C21.6,14.9,21.3,16.3,20.9,17.8z"/>
	<path class="st0" d="M22.9,27c0.8,0,1.5,0,2.3,0c0.2,0,0.4,0.2,0.5,0.3c1.4,2.4,2.8,4.8,4.1,7.2c0.1,0.1,0.2,0.3,0.3,0.4
		c0-2.6,0-5.3,0-8c0.8,0,1.5,0,2.3,0c0,3.9,0,7.7,0,11.7c-0.8,0-1.5,0-2.3,0c-0.1,0-0.3-0.2-0.4-0.4c-1.4-2.5-2.9-5-4.3-7.5
		c-0.1-0.1-0.2-0.2-0.3-0.5c0,2.8,0,5.5,0,8.3c-0.8,0-1.5,0-2.3,0C22.9,34.8,22.9,30.9,22.9,27z"/>
	<path class="st0" d="M45,27c-1.7,1.6-3.2,3.2-4.8,4.7c1.7,2.3,3.3,4.6,5.1,6.9c-0.5,0-1,0-1.5,0c-0.6,0-1.2,0.1-1.7-0.1
		c-0.4-0.2-0.7-0.8-1-1.3c-0.9-1.2-1.7-2.5-2.6-3.7c-0.4,0.4-0.7,0.7-1,1.1c-0.1,0.1-0.1,0.3-0.1,0.5c0,1.2,0,2.3,0,3.5
		c-0.8,0-1.6,0-2.4,0c0-3.9,0-7.7,0-11.6c0.8,0,1.6,0,2.4,0c0,1.5,0,3.1,0,4.7c0.2-0.2,0.3-0.3,0.4-0.4c1.3-1.4,2.6-2.7,3.8-4.1
		c0.1-0.1,0.4-0.2,0.6-0.3C43.1,27,44,27,45,27z"/>
	<path class="st0" d="M21.4,38.7c-0.8,0-1.6,0-2.4,0c-0.1,0-0.3-0.2-0.3-0.3c-0.2-0.7-0.4-1.4-0.7-2.1c-1.4,0-2.9,0-4.3,0
		c-0.2,0.7-0.5,1.3-0.7,2c-0.1,0.2-0.2,0.4-0.5,0.4c-0.7,0-1.4,0-2.2,0c0.1-0.2,0.1-0.3,0.1-0.5c1.3-3.6,2.6-7.2,3.8-10.8
		c0.1-0.3,0.3-0.5,0.6-0.4c0.7,0,1.4,0,2,0c0.1,0,0.4,0.1,0.4,0.2c1.3,3.7,2.6,7.5,4,11.2C21.4,38.5,21.4,38.6,21.4,38.7z
		 M17.3,34.2c-0.5-1.5-0.9-3-1.4-4.5c0,0-0.1,0-0.1,0c-0.5,1.5-1,3-1.5,4.5C15.4,34.2,16.3,34.2,17.3,34.2z"/>
	<path class="st0" d="M5.6,40.6c1.2,0,2.4-0.1,3.6,0c0.7,0.1,1.1,0.6,1.3,1.3c0.1,0.7-0.1,1.3-0.8,1.7c0.6,0.3,0.7,0.9,0.7,1.4
		c0,0.5,0.1,0.9,0.1,1.4c-0.3,0-0.7,0-1.2,0c0-0.2-0.1-0.5-0.1-0.7c0-0.3,0-0.6-0.1-1c0-0.4-0.2-0.6-0.6-0.6c-0.5,0-1,0-1.6,0
		c0,0.8,0,1.5,0,2.3c-0.4,0-0.8,0-1.2,0C5.6,44.5,5.6,42.5,5.6,40.6z M6.8,43.1c0.6,0,1.2,0,1.7,0c0.5,0,0.7-0.3,0.7-0.8
		c0-0.4-0.2-0.8-0.7-0.8c-0.6,0-1.1,0-1.7,0C6.8,42.1,6.8,42.6,6.8,43.1z"/>
	<path class="st0" d="M41,46.5c-0.4,0-0.8,0-1.2,0c0-2,0-3.9,0-5.9c1.2,0,2.4-0.1,3.5,0c0.7,0,1.1,0.5,1.3,1.2
		c0.2,0.8-0.1,1.4-0.8,1.8c0.7,0.3,0.7,1,0.7,1.6c0,0.4,0.1,0.8,0.1,1.3c-0.3,0-0.7,0-1.1,0c-0.1,0-0.2-0.1-0.2-0.2
		c0-0.4-0.1-0.8-0.1-1.1c0-0.7-0.2-0.9-0.9-0.9c-0.4,0-0.8,0-1.1,0c-0.1,0-0.1,0-0.2,0C41,45,41,45.7,41,46.5z M41,43.1
		c0.6,0,1.2,0,1.8,0c0.4,0,0.6-0.3,0.6-0.8c0-0.4-0.2-0.7-0.6-0.8c-0.6-0.1-1.2,0-1.9,0C41,42.1,41,42.6,41,43.1z"/>
	<path class="st0" d="M18.6,46.5c-0.4,0-0.8,0-1.2,0c0-2,0-3.9,0-6c0.4,0,0.7,0,1.1,0c0.1,0,0.3,0.2,0.4,0.3
		c0.7,1.2,1.4,2.4,2.2,3.7c0-1.3,0-2.6,0-4c0.4,0,0.8,0,1.1,0c0,2,0,3.9,0,5.9c-0.4,0-0.7,0-1,0c-0.1,0-0.3-0.2-0.3-0.3
		c-0.7-1.3-1.5-2.5-2.3-3.8C18.6,43.7,18.6,45.1,18.6,46.5z"/>
	<path class="st0" d="M34.2,40.6c1.5,0,2.9,0,4.3,0c0,0.3,0,0.6,0,1c-1,0-2.1,0-3.1,0c0,0.4,0,0.8,0,1.3c0.9,0,1.9,0,2.9,0
		c0,0.4,0,0.7,0,1.1c-0.9,0-1.9,0-2.9,0c0,0.5,0,1,0,1.6c1.1,0,2.2,0,3.3,0c0,0.4,0,0.7,0,1c-1.5,0-3,0-4.5,0
		C34.2,44.5,34.2,42.6,34.2,40.6z"/>
	<path class="st0" d="M16.6,46.5c-0.4,0-0.8,0-1.1,0c-0.1,0-0.3-0.2-0.3-0.4c-0.3-0.8-0.3-0.9-1.2-0.9c-0.1,0-0.1,0-0.2,0
		c-0.3,0-0.8-0.1-1,0c-0.2,0.2-0.3,0.6-0.4,0.9c-0.1,0.1-0.2,0.2-0.3,0.2c-0.3,0-0.6,0-1,0c0-0.2,0.1-0.3,0.1-0.4
		c0.6-1.7,1.2-3.5,1.8-5.2c0.1-0.3,0.2-0.4,0.6-0.4c1,0,1,0,1.4,1c0.5,1.5,1,3,1.6,4.5C16.5,46.1,16.6,46.3,16.6,46.5z M14.6,44.2
		c-0.2-0.8-0.5-1.5-0.7-2.3c-0.3,0.9-0.5,1.6-0.8,2.3C13.6,44.2,14,44.2,14.6,44.2z"/>
	<path class="st0" d="M30.3,46.5c-0.5,0-0.8,0-1.2,0c0-2,0-3.9,0-5.9c1.4,0,2.8,0,4.2,0c0,0.3,0,0.6,0,1c-1,0-1.9,0-2.9,0
		c0,0.5,0,0.9,0,1.4c0.9,0,1.7,0,2.6,0c0,0.4,0,0.7,0,1.1c-0.9,0-1.7,0-2.6,0C30.3,44.8,30.3,45.6,30.3,46.5z"/>
	<path class="st0" d="M4.8,40.6c0,0.3,0,0.6,0,1c-0.6,0-1.2,0-1.8,0c0,1.7,0,3.3,0,4.9c-0.4,0-0.8,0-1.3,0c0-1.6,0-3.2,0-4.9
		c-0.6,0-1.2,0-1.8,0c0-0.4,0-0.7,0-1C1.6,40.6,3.2,40.6,4.8,40.6z"/>
</g>
</svg>
