<?xml version="1.0" encoding="utf-8"?>
<!-- Generator: Adobe Illustrator 22.0.1, SVG Export Plug-In . SVG Version: 6.00 Build 0)  -->
<svg version="1.1" id="Layer_1" xmlns="http://www.w3.org/2000/svg" xmlns:xlink="http://www.w3.org/1999/xlink" x="0px" y="0px"
	 viewBox="0 0 47.5 42.8" style="enable-background:new 0 0 47.5 42.8;" xml:space="preserve">
<style type="text/css">
	.st0{fill:#398D3C;}
	.st1{fill:#7885C9;}
	.st2{fill:#FCB64D;}
	.st3{fill:#1C5E21;}
	.st4{fill:#1C5F21;}
	.st5{fill:#A7D4A5;}
	.st6{fill:#388C3C;}
	.st7{fill:#A8D4A5;}
	.st8{fill:#388D3C;}
</style>
<g>
	<path class="st0" d="M37.3,25.7c-0.6,0.8-1.1,1.7-1.6,2.5c-1.2,2-2.4,4.1-3.6,6.1c-0.4,0.7-0.8,1.3-1.2,2c-0.1,0.2-0.2,0.2-0.4,0.1
		c-0.7-0.4-1.4-0.8-2.1-1.2c-0.1,0-0.2-0.1-0.3-0.1c0-0.1-0.1-0.1-0.1-0.2c-0.7-0.4-1.3-0.8-2-1.1c-0.4-0.2-0.8-0.5-1.3-0.7
		c0.4-0.4,0.7-0.9,1.1-1.3c0.4,0.3,0.9,0.5,1.3,0.8c0.2,0.1,0.3,0.1,0.4-0.1c0.5-1.7,2.6-2.2,3.9-1c0.2,0.1,0.2,0.2,0.3,0
		c1.9-3.2,3.7-6.3,5.6-9.5c1.9-3.2,3.7-6.4,5.6-9.5c0.1-0.2,0.1-0.3-0.1-0.4c-1.5-0.5-2.1-2.4-1.2-3.7c0.1-0.2,0.4-0.3,0.3-0.5
		c0-0.2-0.3-0.2-0.5-0.3c-2.1-1.2-4.2-2.5-6.3-3.7c-0.1-0.1-0.2-0.2-0.3,0.1c-0.6,1.8-2.6,2.3-4,1c-0.1-0.1-0.2-0.1-0.3,0
		c-0.6,1-1.1,1.9-1.7,2.9c-1.6,2.7-3.2,5.4-4.8,8.2c-1.4,2.4-2.8,4.8-4.2,7.2c-0.3-0.5-0.5-1-0.8-1.5c-0.1-0.2-0.1-0.3,0-0.4
		c1.2-2.1,2.4-4.1,3.6-6.2c0.2-0.4,0.5-0.8,0.7-1.3l0,0c0,0,0,0,0.1,0c0.8-1.3,1.5-2.6,2.3-3.9c1.9-3.2,3.8-6.4,5.7-9.6
		c0-0.1,0.1-0.2,0.1-0.3C31.9,0,32,0,32,0c0,0.1,0.1,0.1,0.2,0.1c2.3,1.4,4.6,2.7,6.9,4c2.6,1.5,5.2,3.1,7.9,4.6
		C47.1,8.9,47.1,9,47,9.1c-0.4,0.7-0.9,1.5-1.3,2.2c-0.3,0.4-0.6,0.9-0.8,1.4c-0.5,0.8-1,1.6-1.5,2.5c-1,1.7-2,3.5-3,5.2
		c-1,1.7-2.1,3.5-3.1,5.2C37.3,25.6,37.2,25.7,37.3,25.7z"/>
	<path class="st1" d="M11.7,38.4c0.2,0.6,0.4,1.3,0.6,1.9c0.1,0.2,0.1,0.3-0.2,0.4c-1.7,0.5-3.5,1-5.2,1.5c-0.8,0.2-1.5,0.4-2.3,0.6
		c0,0-0.1,0-0.1,0.1c0,0,0,0-0.1,0c0,0,0,0,0-0.1c-0.7-2.2-1.4-4.5-2.1-6.7c-0.7-2.1-1.3-4.1-2-6.2C0.3,29.4,0.2,29,0,28.6
		c0-0.1,0-0.1,0-0.2c0.7-0.2,1.3-0.4,2-0.5c1.9-0.5,3.8-1.1,5.7-1.6c0.2,0,0.2,0,0.3,0.1c0.1,0.4,0.2,0.8,0.4,1.1
		c0.1,0.4,0.3,0.9,0.4,1.3c0.6,1.9,1.2,3.9,1.8,5.8C11,35.9,11.3,37.1,11.7,38.4z"/>
	<path class="st2" d="M11.7,38.4c-0.4-1.2-0.8-2.5-1.2-3.7c-0.6-1.9-1.2-3.9-1.8-5.8c-0.1-0.4-0.3-0.9-0.4-1.3
		c0.4-0.1,0.7-0.3,0.9-0.7c1.8-2.9,3.7-5.7,5.6-8.6c0.3-0.4,0.5-0.8,0.8-1.2c0.6-0.9,1.4-1.3,2.4-1.6c1.8-0.5,3.7-1.1,5.5-1.6
		c0.1,0,0.2-0.1,0.3,0c-0.2,0.5-0.5,0.9-0.7,1.3c-1.2,2.1-2.4,4.1-3.6,6.2c-0.1,0.1-0.1,0.3,0,0.4c0.3,0.5,0.5,1,0.8,1.5
		c0.1,0.2,0.2,0.4,0.3,0.7c0.1,0.1,0.1,0.2,0.3,0.2c0.6,0,1.3,0,1.9,0c0.1,0,0.2,0,0.4-0.1c0.7-0.6,1.4-1.1,2.1-1.7
		c0.5-0.4,0.9-0.8,1.4-1.2c0.1,0,0.1-0.1,0.2-0.1c0.6-0.5,1.1-0.9,1.7-1.4c1.4-1.1,3.5-0.7,4.4,0.9c0.6,1.1,0.5,2.2-0.2,3.2
		c-0.4,0.4-0.7,0.9-1.1,1.3c-1,1.3-2,2.5-3.1,3.8c-0.8,1-1.6,2-2.5,3.1c-0.4,0.4-0.7,0.9-1.1,1.3c-0.5,0.6-1.1,1.2-1.7,1.7
		c-1.4,1.1-3.1,1.7-4.8,2.1c-2.2,0.4-4.3,0.9-6.5,1.4C11.9,38.3,11.8,38.3,11.7,38.4z M32,22c0-0.8-0.6-1.6-1.3-1.8
		c-0.7-0.2-1.2,0.1-1.8,0.4c-0.6,0.4-0.6,0.4-0.3,1.1c0,0,0,0.1,0,0.1c0.2,0.5,0.5,0.9,0.9,1.2c0.4,0.3,0.9,0.4,1.3,0.6
		c0.1,0,0.2,0,0.3-0.1C31.6,23.1,31.9,22.6,32,22z"/>
	<path class="st2" d="M23.7,13.8C23.7,13.8,23.7,13.8,23.7,13.8C23.7,13.8,23.7,13.8,23.7,13.8z"/>
	<path class="st3" d="M44.9,12.6c0.8,0.8,1.6,1.6,2.5,2.3c0,0,0.1,0.1,0.1,0.2c-1,1-1.9,2-2.9,3c-1.8,1.9-3.6,3.7-5.4,5.6
		c-0.6,0.7-1.3,1.3-1.9,2c-0.1-0.1,0-0.1,0-0.2c1-1.7,2.1-3.5,3.1-5.2c1-1.7,2-3.5,3-5.2C43.9,14.3,44.4,13.5,44.9,12.6z"/>
	<path class="st4" d="M23.3,34.9c0.6-0.5,1.2-1.1,1.7-1.7c0.5,0.2,0.8,0.5,1.3,0.7c0.7,0.4,1.3,0.8,2,1.1c0.1,0,0.1,0.1,0.1,0.2
		c-0.7,0.7-1.4,1.5-2.1,2.2c-0.1,0.1-0.2,0.1-0.3,0C25.1,36.5,24.2,35.7,23.3,34.9z"/>
	<path class="st5" d="M26.5,21.1c-0.5,0.4-0.9,0.8-1.4,1.2c-0.7,0.6-1.4,1.1-2.1,1.7c-0.1,0.1-0.2,0.1-0.4,0.1c-0.6,0-1.3,0-1.9,0
		c-0.2,0-0.2-0.1-0.3-0.2c-0.1-0.2-0.2-0.4-0.3-0.7c1.4-2.4,2.8-4.8,4.2-7.2c1.6-2.7,3.2-5.4,4.8-8.2c0.6-1,1.1-1.9,1.7-2.9
		c0.1-0.1,0.1-0.2,0.3,0c1.4,1.3,3.4,0.8,4-1c0.1-0.2,0.2-0.1,0.3-0.1c2.1,1.2,4.2,2.5,6.3,3.7c0.2,0.1,0.5,0.2,0.5,0.3
		c0,0.2-0.2,0.3-0.3,0.5c-0.9,1.3-0.3,3.2,1.2,3.7c0.3,0.1,0.3,0.2,0.1,0.4c-1.9,3.2-3.7,6.4-5.6,9.5c-1.9,3.2-3.7,6.3-5.6,9.5
		c-0.1,0.2-0.2,0.2-0.3,0c-1.3-1.2-3.4-0.7-3.9,1c-0.1,0.3-0.2,0.3-0.4,0.1c-0.4-0.3-0.9-0.5-1.3-0.8c0.8-1,1.6-2,2.5-3.1
		c1-1.3,2-2.5,3.1-3.8c0.4-0.4,0.7-0.9,1.1-1.3c0.1,0,0.2,0,0.3,0c2.7-0.7,4.5-3.6,4-6.4c-0.6-3.1-3.5-5.1-6.7-4.5
		c-2.6,0.5-4.5,2.8-4.5,5.5C25.7,19.2,26,20.2,26.5,21.1z M37.8,10c0-0.9-0.7-1.6-1.6-1.6c-0.9,0-1.6,0.7-1.6,1.6
		c0,0.9,0.7,1.6,1.6,1.6C37.1,11.6,37.8,10.9,37.8,10z"/>
	<path class="st6" d="M26.5,21.1c-0.5-0.9-0.7-1.8-0.7-2.9c0-2.6,1.9-5,4.5-5.5c3.1-0.6,6.1,1.4,6.7,4.5c0.5,2.8-1.3,5.7-4,6.4
		c-0.1,0-0.2,0-0.3,0c0.7-1,0.8-2.1,0.2-3.2c-0.8-1.6-3-2-4.4-0.9c-0.6,0.4-1.1,0.9-1.7,1.4C26.6,21,26.6,21.1,26.5,21.1z"/>
	<path class="st7" d="M32,22c0,0.6-0.3,1.2-0.8,1.7c-0.1,0.1-0.2,0.1-0.3,0.1c-0.5-0.2-0.9-0.3-1.3-0.6c-0.5-0.3-0.7-0.7-0.9-1.2
		c0,0,0-0.1,0-0.1c-0.3-0.7-0.3-0.7,0.3-1.1c0.5-0.3,1.1-0.6,1.8-0.4C31.4,20.4,32,21.1,32,22z"/>
	<path class="st8" d="M37.8,10c0,0.9-0.7,1.6-1.6,1.6c-0.9,0-1.6-0.7-1.6-1.6c0-0.9,0.7-1.6,1.6-1.6C37.2,8.4,37.8,9.1,37.8,10z"/>
</g>
</svg>
