<?xml version="1.0" encoding="utf-8"?>
<!-- Generator: Adobe Illustrator 22.0.1, SVG Export Plug-In . SVG Version: 6.00 Build 0)  -->
<svg version="1.1" id="Layer_1" xmlns="http://www.w3.org/2000/svg" xmlns:xlink="http://www.w3.org/1999/xlink" x="0px" y="0px"
	 viewBox="0 0 35.5 41.2" style="enable-background:new 0 0 35.5 41.2;" xml:space="preserve">
<style type="text/css">
	.st0{fill:#AE2070;}
</style>
<g>
	<g>
		<path class="st0" d="M9.1,1.1c0.5-0.3,1-0.6,1.5-0.8c3.3-1.3,6.9,0.9,7.5,4.5c0.1,0.4,0.1,0.8,0.1,1.2c0,3.2,0,6.5,0,9.7
			c0,0.1,0,0.1,0,0.2c-1.5,0-2.9,0-4.4,0c0-0.1,0-0.2,0-0.2c0-3.3,0-6.5,0-9.8c0-0.7-0.5-1.3-1.1-1.4C12,4.5,11.4,5,11.3,5.7
			c0,0.1,0,0.2,0,0.3c0,3.2,0,6.5,0,9.7c0,0.1,0,0.2,0,0.3c-0.1,0-0.2,0-0.2,0c-1.3,0-2.6,0-3.9,0c-0.2,0-0.2-0.1-0.2-0.2
			c0-3.2,0-6.5,0-9.7c0-0.7-0.3-1.2-0.9-1.4C5.2,4.4,4.4,5,4.4,6c0,3.3,0,6.5,0,9.8c0,0.1,0,0.2,0,0.3c-0.1,0-0.1,0-0.2,0
			c-1.3,0-2.6,0-4,0C0.1,16,0,16,0,15.8C0,12.5,0,9.2,0,6c0-3,2-5.4,4.7-5.9c1.5-0.3,3,0,4.3,1C9,1.1,9,1.1,9.1,1.1
			C9.1,1.2,9.1,1.2,9.1,1.1C9.1,1.2,9.1,1.2,9.1,1.1z"/>
		<path class="st0" d="M11.3,35.4c-1.5,0-2.9,0-4.3,0c0-0.1,0-0.2,0-0.3c0-3.2,0-6.4,0-9.6c0-0.7-0.3-1.2-0.9-1.4
			c-0.8-0.3-1.7,0.3-1.7,1.3c0,3.3,0,6.5,0,9.8c0,0.1,0,0.2,0,0.3c-1.5,0-2.9,0-4.3,0c0-0.1,0-0.2,0-0.2c0-3.2,0-6.5,0-9.7
			c0-3.1,2.1-5.5,4.8-5.9c1.5-0.2,2.9,0.1,4.1,1c0.1,0.1,0.2,0.1,0.3,0c3.3-2.4,7.8-0.6,8.7,3.5c0.1,0.5,0.2,1,0.2,1.5
			c0,3.3,0,6.5,0,9.8c0,0.1,0,0.1,0,0.2c-1.5,0-2.9,0-4.4,0c0-0.1,0-0.2,0-0.3c0-3.3,0-6.5,0-9.8c0-0.6-0.3-1-0.8-1.3
			c-0.5-0.2-1-0.1-1.4,0.2c-0.3,0.3-0.4,0.6-0.4,1c0,3.2,0,6.5,0,9.7C11.3,35.2,11.3,35.3,11.3,35.4z"/>
		<path class="st0" d="M20.4,8c0-4.4,3.4-8,7.6-8c4.2,0,7.6,3.6,7.6,8.1c0,4.3-3.3,7.9-7.6,7.9C23.7,16,20.4,12.3,20.4,8z M28,4.6
			c-1.8,0-3.3,1.5-3.3,3.4c0,1.9,1.4,3.4,3.2,3.4c1.8,0,3.3-1.5,3.3-3.4C31.2,6.1,29.8,4.6,28,4.6z"/>
		<path class="st0" d="M28,19.5c4,0,7.6,3.4,7.6,8.1c0,4.5-3.5,8-7.7,7.9c-4.1,0-7.6-3.6-7.5-8.1C20.5,22.8,24,19.4,28,19.5z
			 M24.7,27.5c0,1.7,1.3,3.4,3.2,3.4c1.9,0,3.2-1.6,3.2-3.4c0-1.9-1.4-3.4-3.2-3.4C26.2,24,24.7,25.6,24.7,27.5z"/>
		<path class="st0" d="M0.4,39.9c0,0.1,0,0.2,0,0.3c0,0.2,0,0.4,0,0.7c0,0.1-0.1,0.2-0.2,0.2C0.1,41.2,0,41.1,0,41
			c0-0.6,0-1.2,0-1.8C0,39.1,0.1,39,0.2,39c0.1,0,0.2,0,0.3,0.1c0.2,0.2,0.3,0.5,0.5,0.7C0.9,39.9,1,39.9,1,40
			c0.2-0.3,0.4-0.6,0.5-0.8C1.6,39,1.7,38.9,1.9,39C2,39,2,39.2,2,39.3c0,0.5,0,1,0,1.5c0,0,0,0.1,0,0.1C2,41,1.9,41.2,1.8,41.2
			c-0.1,0-0.2-0.1-0.2-0.2c0-0.2,0-0.5,0-0.7c0-0.1,0-0.2,0-0.3c0,0,0,0,0,0c-0.1,0.1-0.2,0.3-0.3,0.4c-0.2,0.3-0.3,0.3-0.5,0
			C0.7,40.2,0.6,40.1,0.4,39.9C0.5,39.9,0.4,39.9,0.4,39.9z"/>
		<path class="st0" d="M8.2,40c0.2,0.2,0.3,0.4,0.2,0.7c-0.1,0.3-0.3,0.4-0.6,0.4c-0.3,0-0.6,0-0.8,0c-0.2,0-0.3-0.1-0.3-0.3
			c0-0.6,0-1.1,0-1.7C6.7,39,6.8,39,6.9,39c0.2,0,0.5,0,0.7,0c0.3,0,0.5,0.1,0.6,0.3C8.4,39.5,8.3,39.8,8.2,40z M7.1,40.3
			c0,0.1,0,0.3,0,0.4c0,0,0.1,0.1,0.1,0.1c0.2,0,0.4,0,0.6,0c0.1,0,0.2-0.1,0.2-0.2c0-0.2-0.1-0.2-0.2-0.2
			C7.5,40.3,7.3,40.3,7.1,40.3z M7.1,39.8c0.2,0,0.4,0,0.6,0c0.1,0,0.2-0.1,0.2-0.2c0-0.1-0.1-0.2-0.2-0.2c-0.2,0-0.4,0-0.6,0
			C7.1,39.5,7.1,39.7,7.1,39.8z"/>
		<path class="st0" d="M22.6,39.9c-0.1,0.2-0.2,0.3-0.3,0.5c-0.1,0.2-0.3,0.2-0.4,0c-0.1-0.2-0.2-0.3-0.4-0.5c0,0.1,0,0.2,0,0.4
			c0,0.2,0,0.4,0,0.6c0,0.2,0,0.3-0.2,0.3c-0.2,0-0.2-0.2-0.2-0.3c0-0.5,0-1.1,0-1.6c0-0.1,0-0.2,0.1-0.3c0.1,0,0.2,0,0.3,0.1
			c0.2,0.3,0.4,0.6,0.6,0.9c0.2-0.3,0.3-0.5,0.5-0.8c0-0.1,0.1-0.1,0.1-0.2c0.1,0,0.2-0.1,0.3,0c0.1,0,0.1,0.1,0.1,0.2
			c0,0.6,0,1.2,0,1.8c0,0.1-0.1,0.2-0.2,0.2c-0.1,0-0.2-0.1-0.2-0.2c0-0.3,0-0.5,0-0.8C22.7,40.1,22.7,40,22.6,39.9
			C22.6,39.9,22.6,39.9,22.6,39.9z"/>
		<path class="st0" d="M28.1,39.8c0,0.3,0,0.5,0,0.8c0,0.1,0,0.2,0,0.3c0,0.2-0.1,0.3-0.2,0.2c-0.1,0-0.2-0.1-0.2-0.2
			c0-0.2,0-0.3,0-0.5c0-0.4,0-0.8,0-1.2c0-0.1,0.1-0.2,0.1-0.3c0.1-0.1,0.2,0,0.3,0.1c0.3,0.4,0.6,0.8,0.9,1.2c0,0,0,0,0.1,0
			c0-0.1,0-0.3,0-0.4c0-0.2,0-0.4,0-0.7c0-0.1,0.1-0.2,0.2-0.2c0.2,0,0.2,0.1,0.2,0.2c0,0.6,0,1.2,0,1.7c0,0.1-0.1,0.2-0.1,0.2
			c-0.1,0-0.2,0-0.3-0.1c-0.3-0.4-0.5-0.7-0.8-1.1C28.3,39.9,28.2,39.9,28.1,39.8C28.2,39.8,28.2,39.8,28.1,39.8z"/>
		<path class="st0" d="M24.3,40.1c0-0.6,0.5-1.1,1.1-1.1c0.6,0,1.1,0.5,1.1,1.2c0,0.7-0.5,1.1-1.1,1.1
			C24.8,41.2,24.3,40.7,24.3,40.1z M25.4,40.8c0.4,0,0.6-0.3,0.6-0.7c0-0.4-0.3-0.7-0.7-0.7c-0.4,0-0.6,0.3-0.6,0.7
			C24.8,40.5,25,40.8,25.4,40.8z"/>
		<path class="st0" d="M3.3,40.1c0-0.7,0.5-1.1,1.1-1.1c0.6,0,1.1,0.5,1.1,1.1c0,0.7-0.5,1.1-1.1,1.1C3.7,41.2,3.3,40.7,3.3,40.1z
			 M5,40.1c0-0.4-0.3-0.7-0.6-0.7c-0.4,0-0.6,0.3-0.6,0.7c0,0.4,0.3,0.7,0.6,0.7C4.7,40.8,5,40.5,5,40.1z"/>
		<path class="st0" d="M14.6,40.3c0,0.5,0,0.5,0.4,0.5c0.2,0,0.4,0,0.6,0c0.1,0,0.2,0.1,0.2,0.2c0,0.1-0.1,0.2-0.2,0.2
			c-0.4,0-0.8,0-1.2,0c-0.1,0-0.2-0.1-0.2-0.2c0-0.6,0-1.2,0-1.7c0-0.2,0.1-0.2,0.2-0.2c0.4,0,0.7,0,1.1,0c0.1,0,0.2,0,0.2,0.2
			c0,0.2-0.1,0.2-0.3,0.2c-0.3,0-0.6,0-0.9,0c0,0.2,0,0.3,0,0.5c0.3,0,0.5,0,0.8,0c0.2,0,0.3,0.1,0.2,0.3c0,0.1-0.1,0.1-0.2,0.2
			C15.1,40.3,14.8,40.3,14.6,40.3z"/>
		<path class="st0" d="M31.3,40.3C31.2,40.3,31.2,40.3,31.3,40.3c-0.1,0.5-0.1,0.5,0.3,0.5c0.2,0,0.4,0,0.6,0c0.1,0,0.2,0.1,0.2,0.2
			c0,0.1-0.1,0.2-0.2,0.2c-0.4,0-0.8,0-1.2,0c-0.1,0-0.2-0.1-0.2-0.2c0-0.6,0-1.2,0-1.7c0-0.2,0.1-0.2,0.2-0.2c0.4,0,0.7,0,1.1,0
			c0.1,0,0.2,0.1,0.2,0.2c0,0.2-0.1,0.2-0.2,0.2c-0.3,0-0.6,0-0.9,0c0,0.2,0,0.3,0,0.5c0.2,0,0.5,0,0.7,0c0.1,0,0.1,0,0.2,0
			c0.1,0.1,0.1,0.1,0.1,0.2c0,0.1-0.1,0.2-0.2,0.2C31.8,40.3,31.5,40.3,31.3,40.3z"/>
		<path class="st0" d="M34.6,39.9c0.1-0.2,0.3-0.4,0.4-0.6c0.1-0.1,0.1-0.2,0.2-0.2c0.1-0.1,0.2-0.1,0.3-0.1c0.1,0.1,0.1,0.2,0,0.3
			c-0.1,0.1-0.2,0.3-0.3,0.4c0,0.1-0.1,0.1-0.1,0.2c-0.2,0.3-0.3,0.6-0.3,0.9c0,0.1,0,0.1,0,0.2c0,0.1-0.1,0.2-0.2,0.2
			c-0.1,0-0.2-0.1-0.2-0.2c0,0,0-0.1,0-0.1c0.1-0.4-0.1-0.8-0.3-1.1c-0.1-0.1-0.2-0.3-0.3-0.5c-0.1-0.1-0.1-0.2,0-0.3
			c0.1-0.1,0.2,0,0.3,0.1C34.2,39.3,34.4,39.6,34.6,39.9z"/>
		<path class="st0" d="M11.4,40.1c0-0.3,0-0.6,0-0.8c0-0.2,0-0.3,0.2-0.3c0.2,0,0.2,0.1,0.2,0.3c0,0.4,0,0.9,0,1.3
			c0,0.2,0,0.2,0.2,0.2c0.2,0,0.4,0,0.7,0c0.1,0,0.2,0,0.2,0.2c0,0.2-0.1,0.2-0.2,0.2c-0.3,0-0.7,0-1,0c-0.2,0-0.2-0.1-0.2-0.3
			C11.4,40.6,11.4,40.3,11.4,40.1z"/>
		<path class="st0" d="M9.7,40.1c0-0.3,0-0.6,0-0.9c0-0.2,0-0.3,0.2-0.3c0.2,0,0.2,0.1,0.2,0.3c0,0.6,0,1.1,0,1.7
			c0,0.1-0.1,0.3-0.2,0.3c-0.2,0-0.2-0.1-0.2-0.3C9.7,40.6,9.7,40.4,9.7,40.1z"/>
	</g>
</g>
</svg>
