<svg xmlns="http://www.w3.org/2000/svg" viewBox="0 0 443.86 405.2"><title>ViettelPay logo</title><path d="M726.65,376.51a38.28,38.28,0,0,0-37.14-16L323.57,411.94a38.88,38.88,0,0,0-22.13,66l223.49,224.3a38.5,38.5,0,0,0,27.41,11.46,40.13,40.13,0,0,0,6.08-.47A38.52,38.52,0,0,0,587,692.63L729.48,416.85a38.25,38.25,0,0,0-2.83-40.34ZM725.89,415,583.44,690.74a34.49,34.49,0,0,1-25.63,18.44,36.65,36.65,0,0,1-5.46.42,34.46,34.46,0,0,1-24.54-10.27L304.3,475a34.84,34.84,0,0,1,19.83-59.09L690.08,364.5a36.79,36.79,0,0,1,5.1-.35A34.86,34.86,0,0,1,725.89,415Z" transform="translate(-290.07 -309.4)" style="fill:#e03"/><path d="M684.12,372.12,332.2,421.6a31.72,31.72,0,0,0-18.08,53.81l215,215.69a31.34,31.34,0,0,0,22.36,9.35,32.82,32.82,0,0,0,5-.38,31.38,31.38,0,0,0,23.34-16.79l137-265.17a31.73,31.73,0,0,0-32.61-46Zm29,44.12-137,265.18a27.68,27.68,0,0,1-44.2,6.83L317,472.55a27.68,27.68,0,0,1,15.73-46.95l351.94-49.48a28.65,28.65,0,0,1,4-.29,27.7,27.7,0,0,1,24.4,40.4Z" transform="translate(-290.07 -309.4)" style="fill:#e03"/><path d="M677.28,383.94,342.33,431A25.31,25.31,0,0,0,327.92,474l204.56,205.3a25,25,0,0,0,17.84,7.46,26.34,26.34,0,0,0,4-.31A25.05,25.05,0,0,0,572.91,673L703.3,420.64a25.32,25.32,0,0,0-26-36.7Zm22.42,34.84L569.32,671.21a21.27,21.27,0,0,1-34,5.25L330.79,471.13A21.27,21.27,0,0,1,342.87,435L677.81,388a21.61,21.61,0,0,1,3.11-.22,21.29,21.29,0,0,1,18.75,31.05Z" transform="translate(-290.07 -309.4)" style="fill:#e03"/><path d="M671.89,395.57,351,440.69a18.15,18.15,0,0,0-10.34,30.79l196,196.73a17.94,17.94,0,0,0,12.79,5.34,18.53,18.53,0,0,0,2.84-.22,18,18,0,0,0,13.38-9.63L690.55,421.88a18.15,18.15,0,0,0-18.66-26.31ZM686.94,420,562,661.85a14.1,14.1,0,0,1-22.52,3.48l-196-196.73a14.1,14.1,0,0,1,8.06-23.9l320.93-45.12A14.1,14.1,0,0,1,687,420Z" transform="translate(-290.07 -309.4)" style="fill:#e03"/><path d="M666.51,407.2,359.57,450.35A11,11,0,0,0,353.32,469L540.77,657.11a10.89,10.89,0,0,0,7.75,3.24,11.61,11.61,0,0,0,1.71-.13,10.86,10.86,0,0,0,8.08-5.79L677.8,423.15a11,11,0,0,0-11.29-15.91Zm7.69,14.06L554.72,652.54a6.93,6.93,0,0,1-11.07,1.71L356.19,466.12a6.94,6.94,0,0,1,3.95-11.77L667.07,411.2a6.94,6.94,0,0,1,7.13,10.05Z" transform="translate(-290.07 -309.4)" style="fill:#e03"/><path d="M654.25,419.79,375.29,459a7.4,7.4,0,0,0-4.22,12.56l170.37,171a7.34,7.34,0,0,0,5.21,2.17,7.8,7.8,0,0,0,1.16-.09,7.32,7.32,0,0,0,5.45-3.92L661.83,430.52a7.41,7.41,0,0,0-7.61-10.73Zm4,8.87L549.68,638.85a3.35,3.35,0,0,1-5.35.83L374,468.7a3.36,3.36,0,0,1,1.91-5.69L654.82,423.8a3.79,3.79,0,0,1,.49,0,3.36,3.36,0,0,1,3,4.9Z" transform="translate(-290.07 -309.4)" style="fill:#e03"/><path d="M698.36,462.41a54.29,54.29,0,0,0-19.46-18.57L579,387.39l-127.42-72c-32.1-18.14-71.29,7.5-67.53,44.17L389.63,414l19.19,187.26,6.57,64.15c4.59,44.84,58.4,65.17,91.49,34.58l.16-.15L638.42,578.46l50.69-46.85a54.69,54.69,0,0,0,9.25-69.2Z" transform="translate(-290.07 -309.4)" style="fill:#e03"/><path d="M576.87,483.5a5.61,5.61,0,0,0-5.61,5.61V494a36.94,36.94,0,1,0,0,52.92v4.86a5.61,5.61,0,1,0,11.23,0V489.12a5.61,5.61,0,0,0-5.61-5.61Zm-31.32,62.64a25.73,25.73,0,1,1,18.17-7.54A25.7,25.7,0,0,1,545.55,546.14Z" transform="translate(-290.07 -309.4)" style="fill:#fff"/><path d="M464,483.5A36.79,36.79,0,0,0,438.27,494v-4.85a5.61,5.61,0,1,0-11.23,0V577.2a5.61,5.61,0,0,0,11.23,0V546.89A36.89,36.89,0,1,0,464,483.5Zm0,62.64a25.73,25.73,0,1,1,18.18-7.53A25.71,25.71,0,0,1,464,546.14Z" transform="translate(-290.07 -309.4)" style="fill:#fff"/><path d="M659.2,484.26a5.61,5.61,0,0,0-7.67,2.05L625.6,531.24l-26-44.93a5.61,5.61,0,1,0-9.72,5.61l29.19,50.54-18.43,31.93a5.62,5.62,0,0,0,9.74,5.6l50.84-88.08a5.61,5.61,0,0,0,.56-4.25,5.6,5.6,0,0,0-2.61-3.4Z" transform="translate(-290.07 -309.4)" style="fill:#fff"/><path d="M558.18,519.91c-4.84-1.7-10.41-7.27-12.07-12.11a.55.55,0,0,0-1,0c-1.7,4.86-7.23,10.41-12.1,12.11a.54.54,0,0,0,0,1c4.86,1.7,10.4,7.23,12.1,12.11a.54.54,0,0,0,1,0c1.7-4.86,7.23-10.41,12.11-12.11a.54.54,0,0,0,0-1Z" transform="translate(-290.07 -309.4)" style="fill:#fff"/><path d="M467.18,447h-2.87a2.08,2.08,0,0,0-2.08,2.08v21.31a2.08,2.08,0,0,0,2.08,2.08h2.87a2.08,2.08,0,0,0,2.08-2.08V449.07A2.08,2.08,0,0,0,467.18,447Z" transform="translate(-290.07 -309.4)" style="fill:#fff"/><path d="M444.27,472.75c1.74,0,3.78-.1,4.87-2.26L461.27,447h-4.43a4.52,4.52,0,0,0-4.08,2.65l-7.64,16.24c-.18.38-.54,1-.85,1s-.66-.62-.84-1l-7.7-16.24a4.51,4.51,0,0,0-4.07-2.65h-4.45l12.13,23.49C440.55,472.79,443,472.75,444.27,472.75Z" transform="translate(-290.07 -309.4)" style="fill:#fff"/><path d="M597.86,472.46a2.08,2.08,0,0,0,2.07-2.08v-2.25h-1.74c-1.27,0-3.91-.05-5.47-1.11-2-1.35-1.86-3.75-1.86-5.48V443.09a2.09,2.09,0,0,0-2.08-2.05h-2.89a2.08,2.08,0,0,0-2.08,2.08v21.07c0,3.22,1.14,5.06,3.18,6.44s4.27,1.87,8.53,1.87Z" transform="translate(-290.07 -309.4)" style="fill:#fff"/><path d="M509.85,464.18c0,3.22,1.14,5.06,3.18,6.44s4.27,1.87,8.53,1.87h2.31a2.08,2.08,0,0,0,2.07-2.08v-2.25h-1.74c-1.27,0-3.91-.05-5.47-1.11-2-1.35-1.86-3.75-1.86-5.48V451.32h14.65v12.87c0,3.22,1.14,5.06,3.19,6.44s4.26,1.87,8.53,1.87h2.31a2.08,2.08,0,0,0,2.08-2.08v-2.25h-1.74c-1.26,0-3.91-.05-5.47-1.11-2-1.35-1.86-3.75-1.86-5.48V451.32h6.83a2.08,2.08,0,0,0,2.08-2.08V447h-8.9v-3.9a2.08,2.08,0,0,0-2.08-2.08h-2.89a2.08,2.08,0,0,0-2.08,2.08V447H516.88v-3.9a2.08,2.08,0,0,0-2.08-2.08h-2.89a2.08,2.08,0,0,0-2.08,2.08V447h-4.38v2.25a2.08,2.08,0,0,0,2.08,2.08h2.31Z" transform="translate(-290.07 -309.4)" style="fill:#fff"/><path d="M502.41,460.64a4.56,4.56,0,0,0,1.5-3.85c0-3.22-.78-6.39-4.51-8.26-2.94-1.49-6.78-1.63-10.51-1.63-3,0-8.4,0-11.88,2.4s-3.79,5.91-3.79,10.67c0,3.36.18,6.87,2.29,9.27,2.64,3,6.51,3.22,9.73,3.22h15.58a2.08,2.08,0,0,0,2.08-2.08v-2.25H487.34c-2.58,0-5.53-.29-6.43-3a15.1,15.1,0,0,1-.42-3.51H499A5.3,5.3,0,0,0,502.41,460.64Zm-7.33-3.36h-10c-2.54,0-4.6,1.16-4.6,2.6v-2.6c.06-1.69,0-3.07,1.45-4.34,1.92-1.73,4.81-1.68,6.67-1.68s4.26.09,6,1.15a4.12,4.12,0,0,1,2,3.41C496.64,456.46,496.46,457.28,495.08,457.28Z" transform="translate(-290.07 -309.4)" style="fill:#fff"/><path d="M561.2,472.46h15.58a2.08,2.08,0,0,0,2.08-2.08v-2.25H563.3c-2.58,0-5.53-.29-6.43-3a15.09,15.09,0,0,1-.42-3.51h18.5a5.29,5.29,0,0,0,3.43-1,4.56,4.56,0,0,0,1.5-3.85c0-3.22-.78-6.39-4.51-8.26-2.94-1.49-6.78-1.63-10.5-1.63-3,0-8.41,0-11.89,2.4s-3.78,5.91-3.78,10.67c0,3.36.17,6.87,2.28,9.27C554.11,472.22,558,472.46,561.2,472.46Zm-4.74-15.19c.06-1.69,0-3.07,1.45-4.34,1.92-1.73,4.81-1.68,6.67-1.68s4.27.09,6,1.15a4.12,4.12,0,0,1,2,3.41c0,.67-.18,1.49-1.56,1.49h-10c-2.54,0-4.6,1.16-4.6,2.6Z" transform="translate(-290.07 -309.4)" style="fill:#fff"/><path d="M465.75,444.59h1.45a2.07,2.07,0,0,0,2.07-2.08v-.57a2.08,2.08,0,0,0-2.07-2.08H464.3a2.08,2.08,0,0,0-2.08,2.08V447A3.44,3.44,0,0,1,465.75,444.59Z" transform="translate(-290.07 -309.4)" style="fill:#fff"/></svg>