<?xml version="1.0" encoding="utf-8"?>
<!-- Generator: Adobe Illustrator 22.0.1, SVG Export Plug-In . SVG Version: 6.00 Build 0)  -->
<svg version="1.1" id="Layer_1" xmlns="http://www.w3.org/2000/svg" xmlns:xlink="http://www.w3.org/1999/xlink" x="0px" y="0px"
	 viewBox="0 0 44.1 45.1" style="enable-background:new 0 0 44.1 45.1;" xml:space="preserve">
<style type="text/css">
	.st0{fill:#118ACB;}
	.st1{fill:#33B44A;}
	.st2{fill:#39B54A;}
</style>
<g id="XMLID_1_">
	<g id="XMLID_6_">
		<path id="XMLID_10_" class="st0" d="M25.7,7.3c-0.3-0.4-0.8-0.5-1.3-0.5c-0.8,0-1.3,0.4-1.7,1.1c-0.8-0.9-1.8-1.3-3.1-1.3
			c-1.6,0-2.9,0.6-4,1.8c-1.1,1.2-1.6,2.7-1.6,4.5c0,1.8,0.5,3.3,1.6,4.5c1.1,1.2,2.4,1.8,4,1.8c1.3,0,2.4-0.5,3.1-1.3
			c0.4,0.7,0.9,1.1,1.7,1.1c0.5,0,1-0.2,1.3-0.5c0.3-0.4,0.5-0.8,0.5-1.3V8.6C26.2,8.1,26,7.6,25.7,7.3z M21.9,15
			c-0.4,0.6-1.1,0.9-1.8,0.9c-0.8,0-1.4-0.3-1.8-0.9c-0.4-0.6-0.7-1.3-0.7-2.1c0-0.8,0.2-1.6,0.7-2.1c0.4-0.6,1.1-0.9,1.8-0.9
			c0.8,0,1.4,0.3,1.8,0.9c0.4,0.6,0.7,1.3,0.7,2.1C22.6,13.7,22.3,14.4,21.9,15z"/>
		<path id="XMLID_9_" class="st0" d="M30.3,18.4C30,18.8,29.5,19,29,19c-0.5,0-1-0.2-1.3-0.5c-0.3-0.4-0.5-0.8-0.5-1.3V1.8
			c0-0.5,0.2-0.9,0.5-1.3C28,0.2,28.5,0,29,0c0.5,0,1,0.2,1.3,0.5c0.3,0.4,0.5,0.8,0.5,1.3v15.3C30.8,17.6,30.7,18.1,30.3,18.4
			L30.3,18.4z"/>
		<path id="XMLID_8_" class="st0" d="M42.4,8.4c-1.2-1.2-2.7-1.8-4.5-1.8c-1.8,0-3.3,0.6-4.4,1.8c-1.1,1.2-1.7,2.7-1.7,4.5
			c0,1.8,0.6,3.3,1.7,4.5c1.1,1.2,2.6,1.8,4.4,1.8c1.8,0,3.3-0.6,4.5-1.8c1.1-1.2,1.7-2.7,1.7-4.5C44.1,11.1,43.5,9.6,42.4,8.4z
			 M39.8,15c-0.4,0.6-1.1,0.9-1.8,0.9c-0.8,0-1.4-0.3-1.8-0.9c-0.4-0.6-0.7-1.3-0.7-2.1c0-0.8,0.2-1.6,0.7-2.1
			c0.4-0.6,1.1-0.9,1.8-0.9c0.8,0,1.4,0.3,1.8,0.9c0.4,0.6,0.7,1.3,0.7,2.1C40.4,13.7,40.2,14.4,39.8,15z"/>
		<path id="XMLID_7_" class="st0" d="M11.9,7c1.3-1.7,1.9-2.8,1.9-3.4c0-1.3-0.8-2-2.5-2H2.5c-0.7,0-1.2,0.2-1.6,0.5
			C0.5,2.4,0.3,2.9,0.3,3.4c0,0.5,0.2,0.9,0.6,1.3C1.2,5,1.8,5.2,2.5,5.2h6.1l-7.8,10C0.3,15.9,0,16.4,0,16.9c0,1.5,1,2.2,2.9,2.2
			H12c1.5,0,2.2-0.6,2.2-1.8s-0.7-1.8-2.2-1.8H5.3L11.9,7L11.9,7z"/>
	</g>
	<g id="XMLID_2_">
		<path id="XMLID_5_" class="st1" d="M7.5,28.6H5.3v4.7h2.3c0.7,0,1.2-0.2,1.7-0.7c0.4-0.4,0.6-1,0.6-1.7c0-0.7-0.2-1.2-0.6-1.7
			C8.8,28.8,8.2,28.6,7.5,28.6z"/>
		<path id="XMLID_4_" class="st1" d="M18.9,33c-0.7,0-1.3,0.3-1.7,0.8c-0.4,0.5-0.6,1.2-0.6,2c0,0.8,0.2,1.4,0.6,2
			c0.4,0.5,1,0.8,1.7,0.8s1.3-0.3,1.7-0.8c0.4-0.5,0.6-1.2,0.6-2c0-0.8-0.2-1.4-0.6-2C20.2,33.3,19.6,33,18.9,33z"/>
		<path id="XMLID_3_" class="st2" d="M34.9,21.9H2c-1.1,0-2,0.9-2,2v19.3c0,1.1,0.9,2,2,2h26c-0.3-0.3-0.4-0.6-0.4-0.9
			c0-0.3,0.1-0.6,0.2-0.9l1.2-2.7l-3.4-8.5c-0.1-0.2-0.2-0.5-0.2-0.8c0-0.4,0.2-0.7,0.5-0.9c0.3-0.3,0.6-0.4,1-0.4
			c0.7,0,1.3,0.4,1.5,1.1l2.1,5.8l2.3-5.8c0.3-0.7,0.8-1.1,1.5-1.1c0.3,0,0.7,0.1,1,0.4c0.3,0.3,0.5,0.6,0.5,0.9
			c0,0.3-0.1,0.6-0.2,0.8l-5,12.2c-0.1,0.3-0.3,0.6-0.5,0.8h4.8c1.1,0,2-0.9,2-2V23.8C36.9,22.7,36,21.9,34.9,21.9z M11.7,34.8
			c-1,0.9-2.3,1.4-3.9,1.4H5.3v3.6c0,0.6-0.2,1-0.5,1.3c-0.3,0.3-0.7,0.5-1.2,0.5s-0.9-0.2-1.2-0.5c-0.3-0.3-0.5-0.7-0.5-1.3V27.4
			c0-1.2,0.6-1.7,1.7-1.7h3.9c1.7,0,3,0.5,4.1,1.5c1.1,1,1.6,2.3,1.6,3.8C13.3,32.6,12.8,33.9,11.7,34.8z M24.6,39.8
			c0,0.5-0.2,0.9-0.5,1.2c-0.3,0.3-0.7,0.5-1.2,0.5c-0.7,0-1.2-0.3-1.6-1c-0.7,0.8-1.7,1.2-2.9,1.2c-1.5,0-2.7-0.6-3.7-1.7
			c-1-1.1-1.5-2.5-1.5-4.2s0.5-3,1.5-4.2c1-1.1,2.2-1.7,3.7-1.7c1.2,0,2.2,0.4,2.9,1.2c0.3-0.7,0.9-1,1.6-1c0.5,0,0.9,0.2,1.2,0.5
			c0.3,0.3,0.5,0.7,0.5,1.2V39.8z"/>
	</g>
</g>
</svg>
